<svg width="24" height="20" viewBox="0 0 24 20" fill="none" xmlns="http://www.w3.org/2000/svg">
<g clip-path="url(#clip0_255_2970)">
<path d="M4.12263 3.14718H6.39941V14.1182H0.461914V6.33915H4.12263V3.14718ZM4.12263 12.2878V8.1695H2.74986V12.2878H4.12263ZM7.31459 6.33915V14.1182H9.60254V6.33915H7.31459ZM7.31459 3.14718V5.42397H9.60254V3.14718H7.31459ZM10.5177 6.33915H16.4664V16.8525H10.5177V15.0333H14.1784V14.1182H10.5177V6.33915ZM14.1784 12.2878V8.1695H12.8057V12.2878H14.1784ZM17.3816 6.33915H23.3191V16.8525H17.3816V15.0333H21.0311V14.1182H17.3816V6.33915ZM21.0311 12.2878V8.1695H19.6583V12.2878H21.0311Z" fill="#fff"/>
</g>
<defs>
<clipPath id="clip0_255_2970">
<rect width="22.8727" height="20" fill="white" transform="matrix(1 0 0 -1 0.454102 20)"/>
</clipPath>
</defs>
</svg>
