<svg width="18" height="18" viewBox="0 0 18 18" fill="none" xmlns="http://www.w3.org/2000/svg">
<path d="M14.2567 0.428432C15.1421 0.428432 15.8992 0.742792 16.5279 1.37151C17.1566 2.00023 17.471 2.7573 17.471 3.64272V14.357C17.471 15.2424 17.1566 15.9995 16.5279 16.6282C15.8992 17.2569 15.1421 17.5713 14.2567 17.5713H3.54241C2.65699 17.5713 1.89993 17.2569 1.27121 16.6282C0.642485 15.9995 0.328125 15.2424 0.328125 14.357V3.64272C0.328125 2.7573 0.642485 2.00023 1.27121 1.37151C1.89993 0.742792 2.65699 0.428432 3.54241 0.428432H14.2567ZM7.42634 10.674C7.42634 10.674 7.54167 10.5586 7.77232 10.328C8.00298 10.0973 8.1183 9.65462 8.1183 8.99986C8.1183 8.3451 7.88765 7.78706 7.42634 7.32575C6.96503 6.86444 6.40699 6.63379 5.75223 6.63379C5.09747 6.63379 4.53943 6.86444 4.07812 7.32575C3.61682 7.78706 3.38616 8.3451 3.38616 8.99986C3.38616 9.65462 3.61682 10.2127 4.07812 10.674C4.53943 11.1353 5.09747 11.3659 5.75223 11.3659C6.40699 11.3659 6.96503 11.1353 7.42634 10.674ZM13.721 10.674C13.721 10.674 13.8363 10.5586 14.067 10.328C14.2976 10.0973 14.4129 9.65462 14.4129 8.99986C14.4129 8.3451 14.1823 7.78706 13.721 7.32575C13.2597 6.86444 12.7016 6.63379 12.0469 6.63379C11.3921 6.63379 10.8341 6.86444 10.3728 7.32575C9.91146 7.78706 9.6808 8.3451 9.6808 8.99986C9.6808 9.65462 9.91146 10.2127 10.3728 10.674C10.8341 11.1353 11.3921 11.3659 12.0469 11.3659C12.7016 11.3659 13.2597 11.1353 13.721 10.674Z" fill="#fff"/>
</svg>
