<svg width="18" height="20" viewBox="0 0 18 20" fill="none" xmlns="http://www.w3.org/2000/svg">
<g clip-path="url(#clip0_255_2962)">
<path d="M4.33259 6.97586V18.0361H0.649554V6.97586H4.33259ZM4.56696 3.56069C4.5744 4.10384 4.38653 4.55771 4.00335 4.92229C3.62016 5.28688 3.11607 5.46917 2.49107 5.46917H2.46875C1.85863 5.46917 1.36756 5.28688 0.995536 4.92229C0.623512 4.55771 0.4375 4.10384 0.4375 3.56069C0.4375 3.01009 0.629092 2.55436 1.01228 2.1935C1.39546 1.83264 1.89583 1.6522 2.51339 1.6522C3.13095 1.6522 3.62574 1.83264 3.99777 2.1935C4.36979 2.55436 4.55952 3.01009 4.56696 3.56069ZM17.5804 11.6968V18.0361H13.9085V12.121C13.9085 11.3397 13.7578 10.7277 13.4565 10.285C13.1551 9.84231 12.6845 9.62095 12.0446 9.62095C11.5759 9.62095 11.1834 9.7493 10.8672 10.006C10.551 10.2627 10.3147 10.5808 10.1585 10.9602C10.0766 11.1835 10.0357 11.4848 10.0357 11.8643V18.0361H6.36384C6.37872 15.0674 6.38616 12.6604 6.38616 10.8152C6.38616 8.96991 6.38244 7.86872 6.375 7.51158L6.36384 6.97586H10.0357V8.58301H10.0134C10.1622 8.34491 10.3147 8.13658 10.471 7.95801C10.6272 7.77944 10.8374 7.58598 11.1016 7.37765C11.3657 7.16932 11.6894 7.00749 12.0725 6.89216C12.4557 6.77683 12.8817 6.71917 13.3504 6.71917C14.6228 6.71917 15.6458 7.14142 16.4196 7.98591C17.1935 8.8304 17.5804 10.0674 17.5804 11.6968Z" fill="#fff"/>
</g>
<defs>
<clipPath id="clip0_255_2962">
<rect width="17.1455" height="20" fill="white" transform="matrix(1 0 0 -1 0.436523 20)"/>
</clipPath>
</defs>
</svg>
