<svg width="18" height="20" viewBox="0 0 18 20" fill="none" xmlns="http://www.w3.org/2000/svg">
<g clip-path="url(#clip0_255_2974)">
<path d="M11.0652 12.02C11.0652 12.02 11.2047 11.8804 11.4837 11.6014C11.7627 11.3224 11.9022 10.7886 11.9022 9.99986C11.9022 9.21117 11.6232 8.53781 11.0652 7.97977C10.5071 7.42174 9.83375 7.14272 9.04506 7.14272C8.25637 7.14272 7.58301 7.42174 7.02497 7.97977C6.46694 8.53781 6.18792 9.21117 6.18792 9.99986C6.18792 10.7886 6.46694 11.4619 7.02497 12.02C7.58301 12.578 8.25637 12.857 9.04506 12.857C9.83375 12.857 10.5071 12.578 11.0652 12.02ZM12.1589 6.88602C12.1589 6.88602 12.3728 7.09994 12.8006 7.52776C13.2285 7.95559 13.4424 8.77962 13.4424 9.99986C13.4424 11.2201 13.0146 12.258 12.1589 13.1137C11.3032 13.9694 10.2653 14.3972 9.04506 14.3972C7.82482 14.3972 6.78688 13.9694 5.93122 13.1137C5.07557 12.258 4.64774 11.2201 4.64774 9.99986C4.64774 8.77962 5.07557 7.74168 5.93122 6.88602C6.78688 6.03037 7.82482 5.60254 9.04506 5.60254C10.2653 5.60254 11.3032 6.03037 12.1589 6.88602ZM14.3464 4.69852C14.3464 4.69852 14.3966 4.74874 14.4971 4.84919C14.5975 4.94964 14.6477 5.14123 14.6477 5.42397C14.6477 5.70671 14.5473 5.94852 14.3464 6.14942C14.1455 6.35031 13.9037 6.45075 13.621 6.45075C13.3382 6.45075 13.0964 6.35031 12.8955 6.14942C12.6946 5.94852 12.5942 5.70671 12.5942 5.42397C12.5942 5.14123 12.6946 4.89942 12.8955 4.69852C13.0964 4.49763 13.3382 4.39718 13.621 4.39718C13.9037 4.39718 14.1455 4.49763 14.3464 4.69852ZM9.89886 2.96303C9.89886 2.96303 9.76958 2.96396 9.51102 2.96582C9.25246 2.96768 9.09714 2.96861 9.04506 2.96861C8.99298 2.96861 8.70838 2.96675 8.19127 2.96303C7.67415 2.95931 7.28167 2.95931 7.01381 2.96303C6.74595 2.96675 6.38695 2.97791 5.9368 2.99651C5.48665 3.01511 5.10347 3.05232 4.78725 3.10812C4.47103 3.16392 4.20503 3.23275 3.98926 3.31459C3.61723 3.4634 3.28985 3.67918 3.00711 3.96192C2.72438 4.24465 2.5086 4.57203 2.35979 4.94406C2.27795 5.15983 2.20912 5.42583 2.15332 5.74205C2.09752 6.05827 2.06031 6.44145 2.04171 6.8916C2.02311 7.34175 2.01195 7.70075 2.00823 7.96861C2.00451 8.23647 2.00451 8.62895 2.00823 9.14607C2.01195 9.66318 2.01381 9.94778 2.01381 9.99986C2.01381 10.0519 2.01195 10.3365 2.00823 10.8537C2.00451 11.3708 2.00451 11.7633 2.00823 12.0311C2.01195 12.299 2.02311 12.658 2.04171 13.1081C2.06031 13.5583 2.09752 13.9415 2.15332 14.2577C2.20912 14.5739 2.27795 14.8399 2.35979 15.0557C2.5086 15.4277 2.72438 15.7551 3.00711 16.0378C3.28985 16.3205 3.61723 16.5363 3.98926 16.6851C4.20503 16.767 4.47103 16.8358 4.78725 16.8916C5.10347 16.9474 5.48665 16.9846 5.9368 17.0032C6.38695 17.0218 6.74595 17.033 7.01381 17.0367C7.28167 17.0404 7.67415 17.0404 8.19127 17.0367C8.70838 17.033 8.99298 17.0311 9.04506 17.0311C9.09714 17.0311 9.38174 17.033 9.89886 17.0367C10.416 17.0404 10.8085 17.0404 11.0763 17.0367C11.3442 17.033 11.7032 17.0218 12.1533 17.0032C12.6035 16.9846 12.9867 16.9474 13.3029 16.8916C13.6191 16.8358 13.8851 16.767 14.1009 16.6851C14.4729 16.5363 14.8003 16.3205 15.083 16.0378C15.3657 15.7551 15.5815 15.4277 15.7303 15.0557C15.8122 14.8399 15.881 14.5739 15.9368 14.2577C15.9926 13.9415 16.0298 13.5583 16.0484 13.1081C16.067 12.658 16.0782 12.299 16.0819 12.0311C16.0856 11.7633 16.0856 11.3708 16.0819 10.8537C16.0782 10.3365 16.0763 10.0519 16.0763 9.99986C16.0763 9.94778 16.0782 9.66318 16.0819 9.14607C16.0856 8.62895 16.0856 8.23647 16.0819 7.96861C16.0782 7.70075 16.067 7.34175 16.0484 6.8916C16.0298 6.44145 15.9926 6.05827 15.9368 5.74205C15.881 5.42583 15.8122 5.15983 15.7303 4.94406C15.5815 4.57203 15.3657 4.24465 15.083 3.96192C14.8003 3.67918 14.4729 3.4634 14.1009 3.31459C13.8851 3.23275 13.6191 3.16392 13.3029 3.10812C12.9867 3.05232 12.6035 3.01511 12.1533 2.99651C11.7032 2.97791 11.3442 2.96675 11.0763 2.96303C10.8085 2.95931 10.416 2.95931 9.89886 2.96303ZM17.5607 6.46192C17.5979 7.11668 17.6165 8.29599 17.6165 9.99986C17.6165 11.7037 17.5979 12.883 17.5607 13.5378C17.4863 15.0854 17.025 16.2833 16.1768 17.1316C15.3285 17.9798 14.1306 18.4411 12.583 18.5155C11.9282 18.5527 10.7489 18.5713 9.04506 18.5713C7.34119 18.5713 6.16188 18.5527 5.50711 18.5155C3.9595 18.4411 2.76158 17.9798 1.91336 17.1316C1.06515 16.2833 0.603841 15.0854 0.529436 13.5378C0.492234 12.883 0.473633 11.7037 0.473633 9.99986C0.473633 8.29599 0.492234 7.11668 0.529436 6.46192C0.603841 4.9143 1.06515 3.71638 1.91336 2.86817C2.76158 2.01995 3.9595 1.55864 5.50711 1.48424C6.16188 1.44703 7.34119 1.42843 9.04506 1.42843C10.7489 1.42843 11.9282 1.44703 12.583 1.48424C14.1306 1.55864 15.3285 2.01995 16.1768 2.86817C17.025 3.71638 17.4863 4.9143 17.5607 6.46192Z" fill="#fff"/>
</g>
<defs>
<clipPath id="clip0_255_2974">
<rect width="17.1455" height="20" fill="white" transform="matrix(1 0 0 -1 0.472656 20)"/>
</clipPath>
</defs>
</svg>
