<svg width="18" height="20" viewBox="0 0 18 20" fill="none" xmlns="http://www.w3.org/2000/svg">
<g clip-path="url(#clip0_255_2968)">
<path d="M16.7391 15.357V9.99986H8.88198V2.14272H3.52483C2.83287 2.14272 2.24321 2.38639 1.75586 2.87374C1.26851 3.3611 1.02483 3.95075 1.02483 4.64272V9.99986H8.88198V17.857H14.2391C14.9311 17.857 15.5207 17.6133 16.0081 17.126C16.4954 16.6386 16.7391 16.049 16.7391 15.357ZM17.4534 4.64272V15.357C17.4534 16.2424 17.139 16.9995 16.5103 17.6282C15.8816 18.2569 15.1245 18.5713 14.2391 18.5713H3.52483C2.63942 18.5713 1.88235 18.2569 1.25363 17.6282C0.624907 16.9995 0.310547 16.2424 0.310547 15.357V4.64272C0.310547 3.7573 0.624907 3.00023 1.25363 2.37151C1.88235 1.74279 2.63942 1.42843 3.52483 1.42843H14.2391C15.1245 1.42843 15.8816 1.74279 16.5103 2.37151C17.139 3.00023 17.4534 3.7573 17.4534 4.64272Z" fill="#fff"/>
</g>
<defs>
<clipPath id="clip0_255_2968">
<rect width="17.1455" height="20" fill="white" transform="matrix(1 0 0 -1 0.30957 20)"/>
</clipPath>
</defs>
</svg>
