<svg width="18" height="20" viewBox="0 0 18 20" fill="none" xmlns="http://www.w3.org/2000/svg">
<g clip-path="url(#clip0_255_2966)">
<path d="M16.1583 5.69741C16.1583 5.69741 16.3499 6.02572 16.7331 6.68234C17.1163 7.33896 17.3079 8.4448 17.3079 9.99986C17.3079 11.5549 16.9247 12.9891 16.1583 14.3023C15.392 15.6156 14.3522 16.6554 13.0389 17.4217C11.7257 18.1881 10.2915 18.5713 8.73647 18.5713C7.91057 18.5713 7.09956 18.4522 6.30343 18.2141C6.74242 17.5222 7.0326 16.9121 7.17397 16.3838C7.24093 16.1308 7.44182 15.3458 7.77665 14.0289C7.92546 14.3191 8.19703 14.5702 8.59138 14.7822C8.98572 14.9943 9.40983 15.1003 9.8637 15.1003C10.764 15.1003 11.5676 14.8455 12.2744 14.3358C12.9813 13.8261 13.5281 13.1249 13.915 12.232C14.3019 11.3391 14.4954 10.3347 14.4954 9.21861C14.4954 8.3704 14.274 7.57427 13.8313 6.83022C13.3886 6.08617 12.7469 5.47977 11.9061 5.01102C11.0653 4.54227 10.1167 4.3079 9.06013 4.3079C8.27888 4.3079 7.54971 4.41578 6.87263 4.63156C6.19554 4.84733 5.62077 5.13379 5.1483 5.49093C4.67583 5.84808 4.27032 6.25916 3.93178 6.72419C3.59324 7.18922 3.34398 7.67099 3.18401 8.1695C3.02404 8.66802 2.94406 9.16653 2.94406 9.66504C2.94406 10.4388 3.09287 11.1197 3.39049 11.7075C3.6881 12.2952 4.12337 12.7082 4.69629 12.9463C4.9195 13.0356 5.06087 12.9612 5.1204 12.7231C5.13528 12.671 5.16504 12.5557 5.20968 12.3771C5.25432 12.1985 5.28409 12.0869 5.29897 12.0423C5.34361 11.8711 5.30269 11.7112 5.1762 11.5624C4.79674 11.1085 4.607 10.5467 4.607 9.87709C4.607 8.75358 4.99577 7.78818 5.7733 6.98089C6.55083 6.1736 7.56831 5.76995 8.82575 5.76995C9.94926 5.76995 10.8254 6.07501 11.4541 6.68513C12.0828 7.29525 12.3972 8.08766 12.3972 9.06236C12.3972 10.3272 12.1423 11.4024 11.6327 12.2878C11.123 13.1732 10.4701 13.6159 9.67397 13.6159C9.2201 13.6159 8.85551 13.4541 8.58022 13.1304C8.30492 12.8068 8.21935 12.418 8.32352 11.9641C8.38304 11.7037 8.48163 11.3559 8.61928 10.9206C8.75693 10.4854 8.86854 10.1022 8.9541 9.77107C9.03967 9.43997 9.08245 9.15909 9.08245 8.92843C9.08245 8.55641 8.982 8.24763 8.78111 8.00209C8.58022 7.75656 8.29376 7.63379 7.92173 7.63379C7.46043 7.63379 7.0698 7.84584 6.74986 8.26995C6.42992 8.69406 6.26995 9.22233 6.26995 9.85477C6.26995 10.3979 6.36296 10.8518 6.54897 11.2164L5.44406 15.8816C5.31757 16.4024 5.26921 17.0609 5.29897 17.857C3.76623 17.1799 2.52739 16.1345 1.58245 14.7208C0.637509 13.3072 0.165039 11.7335 0.165039 9.99986C0.165039 8.4448 0.548224 7.01065 1.31459 5.69741C2.08096 4.38416 3.12077 3.34436 4.43401 2.57799C5.74726 1.81162 7.18141 1.42843 8.73647 1.42843C10.2915 1.42843 11.7257 1.81162 13.0389 2.57799C14.3522 3.34436 15.392 4.38416 16.1583 5.69741Z" fill="#fff"/>
</g>
<defs>
<clipPath id="clip0_255_2966">
<rect width="17.1455" height="20" fill="white" transform="matrix(1 0 0 -1 0.164062 20)"/>
</clipPath>
</defs>
</svg>
