<svg width="9" height="9" viewBox="0 0 9 9" fill="none" xmlns="http://www.w3.org/2000/svg">
<path d="M8.25989 3.93676V5.06311C8.25989 5.21955 8.20513 5.35252 8.09563 5.46203C7.98612 5.57153 7.85315 5.62629 7.69671 5.62629H5.25629V8.06671C5.25629 8.22315 5.20154 8.35612 5.09203 8.46562C4.98253 8.57513 4.84956 8.62988 4.69312 8.62988H3.56677C3.41033 8.62988 3.27736 8.57513 3.16785 8.46562C3.05835 8.35612 3.0036 8.22315 3.0036 8.06671V5.62629H0.563174C0.406737 5.62629 0.273765 5.57153 0.164259 5.46203C0.054753 5.35252 0 5.21955 0 5.06311V3.93676C0 3.78033 0.054753 3.64736 0.164259 3.53785C0.273765 3.42834 0.406737 3.37359 0.563174 3.37359H3.0036V0.933169C3.0036 0.776732 3.05835 0.64376 3.16785 0.534254C3.27736 0.424748 3.41033 0.369995 3.56677 0.369995H4.69312C4.84956 0.369995 4.98253 0.424748 5.09203 0.534254C5.20154 0.64376 5.25629 0.776732 5.25629 0.933169V3.37359H7.69671C7.85315 3.37359 7.98612 3.42834 8.09563 3.53785C8.20513 3.64736 8.25989 3.78033 8.25989 3.93676Z" fill="white"/>
</svg>
