<svg width="20" height="20" viewBox="0 0 20 20" fill="none" xmlns="http://www.w3.org/2000/svg">
<g clip-path="url(#clip0_255_2964)">
<path d="M18.1762 4.55329C17.6777 5.28246 17.075 5.90374 16.3682 6.41713C16.3756 6.5213 16.3793 6.67755 16.3793 6.88588C16.3793 7.85314 16.238 8.81855 15.9552 9.78209C15.6725 10.7456 15.2428 11.6701 14.6662 12.5555C14.0895 13.4409 13.4031 14.2241 12.607 14.9049C11.8109 15.5857 10.851 16.1288 9.72754 16.5343C8.60403 16.9398 7.40239 17.1426 6.12263 17.1426C4.10626 17.1426 2.26102 16.6031 0.586914 15.5243C0.847331 15.554 1.13751 15.5689 1.45745 15.5689C3.13156 15.5689 4.62337 15.0555 5.9329 14.0287C5.15165 14.0139 4.45224 13.7739 3.83468 13.3089C3.21712 12.8438 2.79302 12.2505 2.56236 11.5287C2.8079 11.5659 3.03483 11.5845 3.24316 11.5845C3.5631 11.5845 3.87932 11.5436 4.19182 11.4618C3.35849 11.2906 2.66839 10.8758 2.12151 10.2174C1.57464 9.55887 1.3012 8.79436 1.3012 7.92383V7.87918C1.80715 8.16192 2.35031 8.31445 2.93066 8.33677C2.43959 8.00939 2.04897 7.58157 1.75879 7.05329C1.46861 6.52502 1.32352 5.9521 1.32352 5.33454C1.32352 4.67978 1.48721 4.07338 1.81459 3.51535C2.71489 4.62398 3.8105 5.51125 5.10142 6.17718C6.39234 6.8431 7.77441 7.21326 9.24763 7.28767C9.1881 7.00493 9.15834 6.72963 9.15834 6.46177C9.15834 5.46475 9.5099 4.61468 10.213 3.91155C10.9162 3.20843 11.7662 2.85686 12.7633 2.85686C13.8049 2.85686 14.6829 3.23633 15.3972 3.99526C16.2082 3.83901 16.9708 3.54883 17.6851 3.12472C17.4098 3.98038 16.8816 4.64258 16.1003 5.11133C16.7923 5.03692 17.4842 4.85091 18.1762 4.55329Z" fill="#fff"/>
</g>
<defs>
<clipPath id="clip0_255_2964">
<rect width="18.5818" height="20" fill="white" transform="matrix(1 0 0 -1 0.582031 20)"/>
</clipPath>
</defs>
</svg>
