<svg width="18" height="20" viewBox="0 0 18 20" fill="none" xmlns="http://www.w3.org/2000/svg">
<g clip-path="url(#clip0_255_2976)">
<path d="M11.1549 13.8839V16.2388C11.1549 16.7374 11.0098 16.9866 10.7196 16.9866C10.5485 16.9866 10.381 16.9048 10.2174 16.7411V13.3817C10.381 13.218 10.5485 13.1362 10.7196 13.1362C11.0098 13.1362 11.1549 13.3854 11.1549 13.8839ZM14.9272 13.8951V14.4085H13.9227V13.8951C13.9227 13.3891 14.0901 13.1362 14.4249 13.1362C14.7598 13.1362 14.9272 13.3891 14.9272 13.8951ZM4.14593 11.4621H5.34012V10.4129H1.85798V11.4621H3.02986V17.8125H4.14593V11.4621ZM7.36021 17.8125H8.35352V12.2991H7.36021V16.5179C7.137 16.8304 6.92494 16.9866 6.72405 16.9866C6.59012 16.9866 6.512 16.9085 6.48968 16.7522C6.48224 16.7299 6.47852 16.5997 6.47852 16.3616V12.2991H5.48521V16.6629C5.48521 17.0275 5.51497 17.2991 5.5745 17.4777C5.66378 17.753 5.87956 17.8906 6.22182 17.8906C6.57896 17.8906 6.95843 17.6637 7.36021 17.2098V17.8125ZM12.1482 16.1607V13.9621C12.1482 13.4189 12.1147 13.0506 12.0477 12.8571C11.9212 12.4405 11.6571 12.2321 11.2553 12.2321C10.8833 12.2321 10.5373 12.433 10.2174 12.8348V10.4129H9.22405V17.8125H10.2174V17.2768C10.5522 17.686 10.8982 17.8906 11.2553 17.8906C11.6571 17.8906 11.9212 17.686 12.0477 17.2768C12.1147 17.0759 12.1482 16.7039 12.1482 16.1607ZM15.9205 16.0491V15.904H14.9049C14.9049 16.2835 14.8974 16.5104 14.8825 16.5848C14.8305 16.8527 14.6816 16.9866 14.4361 16.9866C14.0938 16.9866 13.9227 16.7299 13.9227 16.2165V15.2455H15.9205V14.096C15.9205 13.5082 15.82 13.0766 15.6191 12.8013C15.329 12.4219 14.9346 12.2321 14.4361 12.2321C13.9302 12.2321 13.5321 12.4219 13.2419 12.8013C13.0336 13.0766 12.9294 13.5082 12.9294 14.096V16.0268C12.9294 16.6146 13.0373 17.0461 13.2531 17.3214C13.5432 17.7009 13.945 17.8906 14.4584 17.8906C14.9941 17.8906 15.3959 17.6935 15.6638 17.2991C15.7977 17.0982 15.8758 16.8973 15.8982 16.6964C15.913 16.6295 15.9205 16.4137 15.9205 16.0491ZM9.13477 5.85938V3.51562C9.13477 3.00223 8.9748 2.74553 8.65485 2.74553C8.33491 2.74553 8.17494 3.00223 8.17494 3.51562V5.85938C8.17494 6.38021 8.33491 6.64062 8.65485 6.64062C8.9748 6.64062 9.13477 6.38021 9.13477 5.85938ZM17.1593 14.2411C17.1593 15.9821 17.0626 17.2842 16.8691 18.1473C16.765 18.5863 16.5492 18.9546 16.2218 19.2522C15.8944 19.5499 15.515 19.721 15.0834 19.7656C13.7144 19.9219 11.6496 20 8.88923 20C6.12881 20 4.06408 19.9219 2.69503 19.7656C2.26349 19.721 1.88216 19.5499 1.55106 19.2522C1.21996 18.9546 1.00605 18.5863 0.909319 18.1473C0.715867 17.314 0.619141 16.0119 0.619141 14.2411C0.619141 12.5 0.715867 11.1979 0.909319 10.3348C1.01349 9.89583 1.22926 9.52753 1.55664 9.22991C1.88402 8.93229 2.26721 8.75744 2.70619 8.70536C4.0678 8.55655 6.12881 8.48214 8.88923 8.48214C11.6496 8.48214 13.7144 8.55655 15.0834 8.70536C15.515 8.75744 15.8963 8.93229 16.2274 9.22991C16.5585 9.52753 16.7724 9.89583 16.8691 10.3348C17.0626 11.1682 17.1593 12.4702 17.1593 14.2411ZM6.02093 0H7.15932L5.80887 4.45312V7.47768H4.6928V4.45312C4.58863 3.90253 4.3617 3.11384 4.012 2.08705C3.7367 1.32068 3.49488 0.625 3.28655 0H4.46959L5.262 2.93527L6.02093 0ZM10.1504 3.71652V5.66964C10.1504 6.27232 10.0462 6.71131 9.83789 6.98661C9.55515 7.36607 9.16081 7.5558 8.65485 7.5558C8.15634 7.5558 7.76572 7.36607 7.48298 6.98661C7.27465 6.70387 7.17048 6.26488 7.17048 5.66964V3.71652C7.17048 3.12128 7.27465 2.68601 7.48298 2.41071C7.76572 2.03125 8.15634 1.84152 8.65485 1.84152C9.16081 1.84152 9.55515 2.03125 9.83789 2.41071C10.0462 2.68601 10.1504 3.12128 10.1504 3.71652ZM13.8892 1.90848V7.47768H12.8736V6.86384C12.4793 7.32515 12.0961 7.5558 11.7241 7.5558C11.3818 7.5558 11.1623 7.41815 11.0656 7.14286C11.006 6.96429 10.9763 6.68527 10.9763 6.3058V1.90848H11.9919V6.00446C11.9919 6.25 11.9956 6.38021 12.0031 6.39509C12.0254 6.55878 12.1035 6.64062 12.2374 6.64062C12.4383 6.64062 12.6504 6.48065 12.8736 6.16071V1.90848H13.8892Z" fill="#fff"/>
</g>
<defs>
<clipPath id="clip0_255_2976">
<rect width="17.1455" height="20" fill="white" transform="matrix(1 0 0 -1 0.618164 20)"/>
</clipPath>
</defs>
</svg>
